<svg width="88" height="74" viewBox="0 0 88 74" fill="none" xmlns="http://www.w3.org/2000/svg">
<g opacity="0.4">
<g style="mix-blend-mode:overlay">
<path d="M41.6252 37.5898L20.8125 49.1796V73.2505L41.6252 61.6608V37.5898Z" fill="#077FC0"/>
<path d="M-0.000150681 37.5898L20.8125 49.1796V73.2505L-0.000150681 61.6608V37.5898Z" fill="#346980"/>
<path d="M20.8127 26L0 37.5897L20.8127 49.1794L41.6253 37.5897L20.8127 26Z" fill="#608BF6"/>
</g>
<g style="mix-blend-mode:overlay" opacity="0.4">
<path d="M64.6252 24.5898L43.8125 36.1796V60.2505L64.6252 48.6608V24.5898Z" fill="#077FC0"/>
<path d="M22.9998 24.5898L43.8125 36.1796V60.2505L22.9998 48.6608V24.5898Z" fill="#FF480F"/>
<path d="M43.8127 13L23 24.5897L43.8127 36.1794L64.6253 24.5897L43.8127 13Z" fill="#608BF6"/>
</g>
<g style="mix-blend-mode:overlay" opacity="0.2">
<path d="M87.6252 11.5898L66.8125 23.1796V47.2505L87.6252 35.6608V11.5898Z" fill="#346980"/>
<path d="M45.9998 11.5898L66.8125 23.1796V47.2505L45.9998 35.6608V11.5898Z" fill="#FF480F"/>
<path d="M66.8127 0L46 11.5897L66.8127 23.1794L87.6253 11.5897L66.8127 0Z" fill="#608BF6"/>
</g>
</g>
</svg>
