<svg width="100" height="22" viewBox="0 0 100 22" fill="none" xmlns="http://www.w3.org/2000/svg">
<path d="M59.5 11.0327C59.5 16.4427 55.2341 20.8052 50 20.8052C44.7659 20.8052 40.5 16.4427 40.5 11.0327C40.5 5.62279 44.7659 1.26025 50 1.26025C55.2341 1.26025 59.5 5.62279 59.5 11.0327Z" fill="white" stroke="#E7E8E6"/>
<path d="M99.5 11.0327C99.5 16.4427 95.2341 20.8052 90 20.8052C84.7659 20.8052 80.5 16.4427 80.5 11.0327C80.5 5.62279 84.7659 1.26025 90 1.26025C95.2341 1.26025 99.5 5.62279 99.5 11.0327Z" stroke="#E7E8E6"/>
<path d="M19.5 11.0327C19.5 16.4427 15.2341 20.8052 10 20.8052C4.76588 20.8052 0.5 16.4427 0.5 11.0327C0.5 5.62279 4.76588 1.26025 10 1.26025C15.2341 1.26025 19.5 5.62279 19.5 11.0327Z" stroke="#E7E8E6"/>
</svg>
