<svg width="700" height="561" viewBox="0 0 700 561" fill="none" xmlns="http://www.w3.org/2000/svg">
<g style="mix-blend-mode:overlay" opacity="0.2">
<path d="M585.125 524.91L605.938 536.5V560.571L585.125 548.981V524.91Z" fill="#FDA700"/>
<path d="M626.75 524.91L605.938 536.5V560.571L626.75 548.981V524.91Z" fill="#FF480F"/>
<path d="M605.937 513.321L626.75 524.911L605.937 536.5L585.125 524.911L605.937 513.321Z" fill="#FFD966"/>
</g>
<g style="mix-blend-mode:overlay" opacity="0.8">
<path d="M539 498.59L559.812 510.179V534.25L539 522.661V498.59Z" fill="#FDA700"/>
<path d="M580.625 498.59L559.812 510.179V534.25L580.625 522.661V498.59Z" fill="#FF480F"/>
<path d="M559.812 487L580.625 498.59L559.812 510.179L539 498.59L559.812 487Z" fill="#FFD966"/>
</g>
<g style="mix-blend-mode:overlay" opacity="0.4">
<path d="M562.062 511.071L582.875 522.661V546.732L562.062 535.142V511.071Z" fill="#FDA700"/>
<path d="M603.688 511.071L582.875 522.661V546.732L603.688 535.142V511.071Z" fill="#FF480F"/>
<path d="M582.875 499.481L603.688 511.071L582.875 522.661L562.062 511.071L582.875 499.481Z" fill="#FFD966"/>
</g>
<g style="mix-blend-mode:overlay">
<path d="M653.625 174.59L632.812 186.18V210.25L653.625 198.661V174.59Z" fill="#FDA700"/>
<path d="M612 174.59L632.812 186.18V210.25L612 198.661V174.59Z" fill="#FF480F"/>
<path d="M632.813 163L612 174.59L632.813 186.179L653.625 174.59L632.813 163Z" fill="#FFD966"/>
</g>
<g style="mix-blend-mode:overlay" opacity="0.4">
<path d="M676.625 161.59L655.812 173.18V197.25L676.625 185.661V161.59Z" fill="#FDA700"/>
<path d="M635 161.59L655.812 173.18V197.25L635 185.661V161.59Z" fill="#FF480F"/>
<path d="M655.813 150L635 161.59L655.813 173.179L676.625 161.59L655.813 150Z" fill="#FFD966"/>
</g>
<g style="mix-blend-mode:overlay" opacity="0.2">
<path d="M699.625 148.59L678.812 160.18V184.25L699.625 172.661V148.59Z" fill="#FDA700"/>
<path d="M658 148.59L678.812 160.18V184.25L658 172.661V148.59Z" fill="#FF480F"/>
<path d="M678.813 137L658 148.59L678.813 160.179L699.625 148.59L678.813 137Z" fill="#FFD966"/>
</g>
<g style="mix-blend-mode:overlay" opacity="0.3">
<path d="M41.6252 11.5898L20.8125 23.1796V47.2505L41.6252 35.6608V11.5898Z" fill="#FDA700"/>
<path d="M-0.000150681 11.5898L20.8125 23.1796V47.2505L-0.000150681 35.6608V11.5898Z" fill="#FF480F"/>
<path d="M20.8127 0L0 11.5897L20.8127 23.1794L41.6253 11.5897L20.8127 0Z" fill="#FFD966"/>
</g>
<g style="mix-blend-mode:overlay" opacity="0.5">
<path d="M64.6252 24.5898L43.8125 36.1796V60.2505L64.6252 48.6608V24.5898Z" fill="#FDA700"/>
<path d="M22.9998 24.5898L43.8125 36.1796V60.2505L22.9998 48.6608V24.5898Z" fill="#FF480F"/>
<path d="M43.8127 13L23 24.5897L43.8127 36.1794L64.6253 24.5897L43.8127 13Z" fill="#FFD966"/>
</g>
<g style="mix-blend-mode:overlay" opacity="0.8">
<path d="M87.6252 37.5898L66.8125 49.1796V73.2505L87.6252 61.6608V37.5898Z" fill="#FDA700"/>
<path d="M45.9998 37.5898L66.8125 49.1796V73.2505L45.9998 61.6608V37.5898Z" fill="#FF480F"/>
<path d="M66.8127 26L46 37.5897L66.8127 49.1794L87.6253 37.5897L66.8127 26Z" fill="#FFD966"/>
</g>
<g style="mix-blend-mode:overlay" opacity="0.3">
<path d="M293.625 210.59L272.812 222.18V246.25L293.625 234.661V210.59Z" fill="#FDA700"/>
<path d="M252 210.59L272.812 222.18V246.25L252 234.661V210.59Z" fill="#FF480F"/>
<path d="M272.813 199L252 210.59L272.813 222.179L293.625 210.59L272.813 199Z" fill="#FFD966"/>
</g>
<g style="mix-blend-mode:overlay" opacity="0.5">
<path d="M316.625 223.59L295.812 235.18V259.25L316.625 247.661V223.59Z" fill="#FDA700"/>
<path d="M275 223.59L295.812 235.18V259.25L275 247.661V223.59Z" fill="#FF480F"/>
<path d="M295.813 212L275 223.59L295.813 235.179L316.625 223.59L295.813 212Z" fill="#FFD966"/>
</g>
<g style="mix-blend-mode:overlay" opacity="0.8">
<path d="M339.625 236.59L318.812 248.18V272.25L339.625 260.661V236.59Z" fill="#FDA700"/>
<path d="M298 236.59L318.812 248.18V272.25L298 260.661V236.59Z" fill="#FF480F"/>
<path d="M318.813 225L298 236.59L318.813 248.179L339.625 236.59L318.813 225Z" fill="#FFD966"/>
</g>
<g style="mix-blend-mode:overlay" opacity="0.1">
<path d="M158.625 501.59L137.812 513.179V537.25L158.625 525.661V501.59Z" fill="#FDA700"/>
<path d="M117 501.59L137.812 513.179V537.25L117 525.661V501.59Z" fill="#FF480F"/>
<path d="M137.813 490L117 501.59L137.813 513.179L158.625 501.59L137.813 490Z" fill="#FFD966"/>
</g>
<g style="mix-blend-mode:overlay" opacity="0.2">
<path d="M181.625 488.59L160.812 500.179V524.25L181.625 512.661V488.59Z" fill="#FDA700"/>
<path d="M140 488.59L160.812 500.179V524.25L140 512.661V488.59Z" fill="#FF480F"/>
<path d="M160.813 477L140 488.59L160.813 500.179L181.625 488.59L160.813 477Z" fill="#FFD966"/>
</g>
<g style="mix-blend-mode:overlay" opacity="0.8">
<path d="M204.625 475.59L183.812 487.179V511.25L204.625 499.661V475.59Z" fill="#FDA700"/>
<path d="M163 475.59L183.812 487.179V511.25L163 499.661V475.59Z" fill="#FF480F"/>
<path d="M183.813 464L163 475.59L183.813 487.179L204.625 475.59L183.813 464Z" fill="#FFD966"/>
</g>
</svg>
