<svg width="87" height="73" viewBox="0 0 87 73" fill="none" xmlns="http://www.w3.org/2000/svg">
<g opacity="0.4">
<g style="mix-blend-mode:overlay">
<path d="M41.6252 11.5896L20.8125 23.1793V47.2502L41.6252 35.6605V11.5896Z" fill="#077FC0"/>
<path d="M-0.000150681 11.5896L20.8125 23.1793V47.2502L-0.000150681 35.6605V11.5896Z" fill="#346980"/>
<path d="M20.8127 0L0 11.5897L20.8127 23.1794L41.6253 11.5897L20.8127 0Z" fill="#608BF6"/>
</g>
<g style="mix-blend-mode:overlay" opacity="0.4">
<path d="M63.8606 24.9182L43.6162 36.1915V59.6052L63.8606 48.3319V24.9182Z" fill="#077FC0"/>
<path d="M23.3718 24.9182L43.6162 36.1915V59.6052L23.3718 48.3319V24.9182Z" fill="#213251"/>
<path d="M43.6165 13.645L23.3721 24.9183L43.6165 36.1915L63.8609 24.9183L43.6165 13.645Z" fill="#60C0F6"/>
</g>
<g style="mix-blend-mode:overlay" opacity="0.2">
<path d="M86.2327 37.5632L65.9883 48.8365V72.2502L86.2327 60.9769V37.5632Z" fill="#077FC0"/>
<path d="M45.7439 37.5632L65.9883 48.8365V72.2502L45.7439 60.9769V37.5632Z" fill="#213251"/>
<path d="M65.9885 26.29L45.7441 37.5633L65.9885 48.8366L86.2329 37.5633L65.9885 26.29Z" fill="#60C0F6"/>
</g>
</g>
</svg>
