<svg width="86" height="72" viewBox="0 0 86 72" fill="none" xmlns="http://www.w3.org/2000/svg">
<path d="M40.4885 11.2732L20.2441 22.5465V45.9602L40.4885 34.6869V11.2732Z" fill="#FDA700"/>
<path d="M-0.000249863 11.2732L20.2441 22.5465V45.9602L-0.000249863 34.6869V11.2732Z" fill="#FF480F"/>
<path d="M20.2444 0L0 11.2733L20.2444 22.5465L40.4888 11.2733L20.2444 0Z" fill="#FFD966"/>
<g style="mix-blend-mode:overlay" opacity="0.4">
<path d="M62.8606 23.9182L42.6162 35.1915V58.6052L62.8606 47.3319V23.9182Z" fill="#077FC0"/>
<path d="M22.3718 23.9182L42.6162 35.1915V58.6052L22.3718 47.3319V23.9182Z" fill="#213251"/>
<path d="M42.6165 12.645L22.3721 23.9183L42.6165 35.1915L62.8609 23.9183L42.6165 12.645Z" fill="#60C0F6"/>
</g>
<g style="mix-blend-mode:overlay" opacity="0.2">
<path d="M85.2327 36.5632L64.9883 47.8365V71.2502L85.2327 59.9769V36.5632Z" fill="#077FC0"/>
<path d="M44.7439 36.5632L64.9883 47.8365V71.2502L44.7439 59.9769V36.5632Z" fill="#213251"/>
<path d="M64.9885 25.29L44.7441 36.5633L64.9885 47.8366L85.2329 36.5633L64.9885 25.29Z" fill="#60C0F6"/>
</g>
</svg>
