<svg width="135" height="139" viewBox="0 0 135 139" fill="none" xmlns="http://www.w3.org/2000/svg">
<g style="mix-blend-mode:overlay" opacity="0.1">
<path d="M88.5734 11.5896L67.7607 23.1793V47.2502L88.5734 35.6605V11.5896Z" fill="#077FC0"/>
<path d="M46.9481 11.5896L67.7607 23.1793V47.2502L46.9481 35.6605V11.5896Z" fill="#213251"/>
<path d="M67.7609 0L46.9482 11.5897L67.7609 23.1794L88.5735 11.5897L67.7609 0Z" fill="#60C0F6"/>
</g>
<g style="mix-blend-mode:overlay" opacity="0.2">
<path d="M65.5734 24.5896L44.7607 36.1793V60.2502L65.5734 48.6605V24.5896Z" fill="#077FC0"/>
<path d="M23.9481 24.5896L44.7607 36.1793V60.2502L23.9481 48.6605V24.5896Z" fill="#213251"/>
<path d="M44.7609 13L23.9482 24.5897L44.7609 36.1794L65.5735 24.5897L44.7609 13Z" fill="#60C0F6"/>
</g>
<g style="mix-blend-mode:overlay" opacity="0.3">
<path d="M42.5734 37.5896L21.7607 49.1793V73.2502L42.5734 61.6605V37.5896Z" fill="#077FC0"/>
<path d="M0.948092 37.5896L21.7607 49.1793V73.2502L0.948092 61.6605V37.5896Z" fill="#213251"/>
<path d="M21.7609 26L0.948242 37.5897L21.7609 49.1794L42.5735 37.5897L21.7609 26Z" fill="#60C0F6"/>
</g>
<g style="mix-blend-mode:overlay" opacity="0.4">
<path d="M65.5734 50.5896L44.7607 62.1793V86.2502L65.5734 74.6605V50.5896Z" fill="#077FC0"/>
<path d="M23.9481 50.5896L44.7607 62.1793V86.2502L23.9481 74.6605V50.5896Z" fill="#213251"/>
<path d="M44.7609 39L23.9482 50.5897L44.7609 62.1794L65.5735 50.5897L44.7609 39Z" fill="#60C0F6"/>
</g>
<g style="mix-blend-mode:overlay" opacity="0.5">
<path d="M88.5177 63.5896L67.7051 75.1793V99.2502L88.5177 87.6605V63.5896Z" fill="#077FC0"/>
<path d="M46.8924 63.5896L67.7051 75.1793V99.2502L46.8924 87.6605V63.5896Z" fill="#213251"/>
<path d="M67.7052 52L46.8926 63.5897L67.7052 75.1794L88.5179 63.5897L67.7052 52Z" fill="#60C0F6"/>
</g>
<g style="mix-blend-mode:overlay" opacity="0.6">
<path d="M111.462 76.5896L90.6494 88.1793V112.25L111.462 100.661V76.5896Z" fill="#077FC0"/>
<path d="M69.8368 76.5896L90.6494 88.1793V112.25L69.8368 100.661V76.5896Z" fill="#213251"/>
<path d="M90.6496 65L69.8369 76.5897L90.6496 88.1794L111.462 76.5897L90.6496 65Z" fill="#60C0F6"/>
</g>
<g style="mix-blend-mode:overlay" opacity="0.7">
<path d="M134.406 89.5896L113.594 101.179V125.25L134.406 113.661V89.5896Z" fill="#077FC0"/>
<path d="M92.7811 89.5896L113.594 101.179V125.25L92.7811 113.661V89.5896Z" fill="#213251"/>
<path d="M113.594 78L92.7812 89.5897L113.594 101.179L134.407 89.5897L113.594 78Z" fill="#60C0F6"/>
</g>
<g style="mix-blend-mode:overlay">
<path d="M111.462 102.59L90.6494 114.179V138.25L111.462 126.661V102.59Z" fill="#077FC0"/>
<path d="M69.8368 102.59L90.6494 114.179V138.25L69.8368 126.661V102.59Z" fill="#213251"/>
<path d="M90.6496 91L69.8369 102.59L90.6496 114.179L111.462 102.59L90.6496 91Z" fill="#60C0F6"/>
</g>
</svg>
