<svg width="69" height="57" viewBox="0 0 69 57" fill="none" xmlns="http://www.w3.org/2000/svg">
<g opacity="0.5">
<g style="mix-blend-mode:overlay" opacity="0.2">
<path d="M30.0148 8.35718L15.0073 16.7142V34.0712L30.0148 25.7141V8.35718Z" fill="#077FC0"/>
<path d="M-0.000182152 8.35718L15.0073 16.7142V34.0712L-0.000182152 25.7141V8.35718Z" fill="#152138"/>
<path d="M15.0075 0L0 8.35706L15.0075 16.7141L30.015 8.35706L15.0075 0Z" fill="#60C0F6"/>
</g>
<g style="mix-blend-mode:overlay" opacity="0.2">
<path d="M48.5998 19.7312L33.5923 28.0883V45.4452L48.5998 37.0882V19.7312Z" fill="#077FC0"/>
<path d="M18.5848 19.7312L33.5923 28.0883V45.4452L18.5848 37.0882V19.7312Z" fill="#213251"/>
<path d="M33.5925 11.374L18.585 19.7311L33.5925 28.0881L48.6 19.7311L33.5925 11.374Z" fill="#60C0F6"/>
</g>
<g style="mix-blend-mode:overlay" opacity="0.1">
<path d="M68.1843 31.1052L53.1768 39.4623V56.8193L68.1843 48.4622V31.1052Z" fill="#077FC0"/>
<path d="M38.1693 31.1052L53.1768 39.4623V56.8193L38.1693 48.4622V31.1052Z" fill="#213251"/>
<path d="M53.1769 22.748L38.1694 31.1051L53.1769 39.4622L68.1844 31.1051L53.1769 22.748Z" fill="#60C0F6"/>
</g>
</g>
</svg>
