<svg width="69" height="58" viewBox="0 0 69 58" fill="none" xmlns="http://www.w3.org/2000/svg">
<g style="mix-blend-mode:overlay" opacity="0.3">
<path d="M30.8575 8.5918L15.4287 17.1834V35.0276L30.8575 26.436V8.5918Z" fill="#077FC0"/>
<path d="M-5.53131e-05 8.5918L15.4287 17.1834V35.0276L-5.53131e-05 26.436V8.5918Z" fill="#213251"/>
<path d="M15.4288 0L0 8.59164L15.4288 17.1833L30.8575 8.59164L15.4288 0Z" fill="#60C0F6"/>
</g>
<g style="mix-blend-mode:overlay" opacity="0.5">
<path d="M49.9078 20.229L34.479 28.8206V46.6648L49.9078 38.0732V20.229Z" fill="#077FC0"/>
<path d="M19.0502 20.229L34.479 28.8206V46.6648L19.0502 38.0732V20.229Z" fill="#213251"/>
<path d="M34.4791 11.6372L19.0503 20.2289L34.4791 28.8205L49.9078 20.2289L34.4791 11.6372Z" fill="#60C0F6"/>
</g>
<g style="mix-blend-mode:overlay" opacity="0.8">
<path d="M68.9581 30.8662L53.5293 39.4579V57.302L68.9581 48.7104V30.8662Z" fill="#077FC0"/>
<path d="M38.1005 30.8662L53.5293 39.4579V57.302L38.1005 48.7104V30.8662Z" fill="#213251"/>
<path d="M53.5294 22.2744L38.1006 30.8661L53.5294 39.4577L68.9581 30.8661L53.5294 22.2744Z" fill="#60C0F6"/>
</g>
</svg>
