<svg width="84" height="70" viewBox="0 0 84 70" fill="none" xmlns="http://www.w3.org/2000/svg">
<g style="mix-blend-mode:overlay" opacity="0.2">
<path d="M83.5883 11.0557L63.7344 22.1115V45.0736L83.5883 34.0177V11.0557Z" fill="#346980"/>
<path d="M43.8805 11.0557L63.7344 22.1115V45.0736L43.8805 34.0177V11.0557Z" fill="#213251"/>
<path d="M63.7348 0L43.8809 11.0558L63.7348 22.1116L83.5886 11.0558L63.7348 0Z" fill="#60C0F6"/>
</g>
<g style="mix-blend-mode:overlay" opacity="0.4">
<path d="M61.6478 23.457L41.7939 34.5128V57.4749L61.6478 46.4191V23.457Z" fill="#077FC0"/>
<path d="M21.9401 23.457L41.7939 34.5128V57.4749L21.9401 46.4191V23.457Z" fill="#213251"/>
<path d="M41.7943 12.4014L21.9404 23.4572L41.7943 34.513L61.6482 23.4572L41.7943 12.4014Z" fill="#60C0F6"/>
</g>
<path d="M39.7074 35.8579L19.8535 46.9137V69.8758L39.7074 58.82V35.8579Z" fill="#FDA700"/>
<path d="M-0.000375748 35.8579L19.8535 46.9137V69.8758L-0.000375748 58.82V35.8579Z" fill="#FF480F"/>
<path d="M19.8539 24.8022L0 35.8581L19.8539 46.9139L39.7078 35.8581L19.8539 24.8022Z" fill="#FFD966"/>
</svg>
