<svg width="25" height="25" viewBox="0 0 25 25" fill="none" xmlns="http://www.w3.org/2000/svg">
<path d="M23.7153 5.06353C22.8778 5.44302 21.978 5.69943 21.0321 5.81533C22.0081 5.21819 22.7383 4.27837 23.0864 3.17122C22.1694 3.72814 21.1658 4.12014 20.1193 4.3302C19.4155 3.56185 18.4833 3.05258 17.4675 2.88145C16.4516 2.71032 15.4089 2.88691 14.5013 3.38379C13.5936 3.88067 12.8718 4.67006 12.4479 5.62938C12.024 6.58871 11.9217 7.6643 12.1569 8.68917C10.2989 8.59378 8.48122 8.09999 6.82192 7.23984C5.16263 6.3797 3.69876 5.17241 2.52532 3.69635C2.12409 4.40404 1.89338 5.22456 1.89338 6.0984C1.89293 6.88506 2.08239 7.65968 2.44495 8.35351C2.80751 9.04735 3.33195 9.63896 3.97175 10.0758C3.22976 10.0517 2.50413 9.84669 1.85526 9.47789V9.53943C1.85519 10.6428 2.22844 11.7121 2.91169 12.5661C3.59493 13.4201 4.54609 14.006 5.60376 14.2246C4.91543 14.415 4.19377 14.4431 3.49329 14.3066C3.7917 15.256 4.37298 16.0861 5.15575 16.6809C5.93853 17.2757 6.8836 17.6053 7.85868 17.6235C6.20343 18.9522 4.15922 19.6729 2.05487 19.6697C1.68211 19.6698 1.30967 19.6475 0.939453 19.603C3.07548 21.0073 5.56197 21.7526 8.10142 21.7497C16.6978 21.7497 21.3972 14.4697 21.3972 8.15584C21.3972 7.95071 21.3922 7.74353 21.3832 7.5384C22.2973 6.86248 23.0863 6.02548 23.7133 5.06661L23.7153 5.06353V5.06353Z" fill="white"/>
</svg>
